<?xml version="1.0" encoding="UTF-8" standalone="no"?>
<!-- Created with Inkscape (http://www.inkscape.org/) -->

<svg
   xmlns:dc="http://purl.org/dc/elements/1.1/"
   xmlns:cc="http://creativecommons.org/ns#"
   xmlns:rdf="http://www.w3.org/1999/02/22-rdf-syntax-ns#"
   xmlns:svg="http://www.w3.org/2000/svg"
   xmlns="http://www.w3.org/2000/svg"
   xmlns:sodipodi="http://sodipodi.sourceforge.net/DTD/sodipodi-0.dtd"
   xmlns:inkscape="http://www.inkscape.org/namespaces/inkscape"
   width="435.45343mm"
   height="319.25891mm"
   viewBox="0 0 1542.9453 1131.2323"
   id="svg2"
   version="1.1"
   inkscape:version="0.91 r13725"
   sodipodi:docname="background3.svg">
  <defs
     id="defs4" />
  <sodipodi:namedview
     id="base"
     pagecolor="#ffffff"
     bordercolor="#666666"
     borderopacity="1.0"
     inkscape:pageopacity="0.0"
     inkscape:pageshadow="2"
     inkscape:zoom="0.5"
     inkscape:cx="1069.7859"
     inkscape:cy="536.39295"
     inkscape:document-units="px"
     inkscape:current-layer="g5209"
     showgrid="false"
     showborder="true"
     inkscape:window-width="1215"
     inkscape:window-height="776"
     inkscape:window-x="65"
     inkscape:window-y="24"
     inkscape:window-maximized="1"
     fit-margin-top="0"
     fit-margin-left="0"
     fit-margin-right="0"
     fit-margin-bottom="0" />
  <metadata
     id="metadata7">
    <rdf:RDF>
      <cc:Work
         rdf:about="">
        <dc:format>image/svg+xml</dc:format>
        <dc:type
           rdf:resource="http://purl.org/dc/dcmitype/StillImage" />
        <dc:title></dc:title>
      </cc:Work>
    </rdf:RDF>
  </metadata>
  <g
     inkscape:label="Layer 1"
     inkscape:groupmode="layer"
     id="layer1"
     transform="translate(248.71337,-117.60636)">
    <path
       style="opacity:0.59500002;fill:none;fill-rule:evenodd;stroke:#45eca8;stroke-width:5.63338995;stroke-linecap:round;stroke-linejoin:round;stroke-miterlimit:4;stroke-dasharray:none;stroke-opacity:1"
       d="m 175.09287,384.56504 c 19.99552,-0.60601 29.68771,7.93407 41.94856,20.65158 33.28906,-28.89098 96.8597,-22.94367 117.45592,5.80831 -17.39664,33.89498 -92.13888,34.51339 -117.45592,11.61647 -5.26787,11.55817 -21.21639,23.29365 -38.07638,20.65159 -0.21112,-13.11411 7.52434,-27.15266 20.65159,-29.68656 -13.61937,-0.64206 -25.11973,-10.43543 -24.52377,-29.04139 z"
       id="path4136"
       inkscape:connector-curvature="0"
       sodipodi:nodetypes="ccccccc" />
    <path
       style="fill:none;fill-rule:evenodd;stroke:#000000;stroke-width:1px;stroke-linecap:butt;stroke-linejoin:miter;stroke-opacity:1"
       d="m -172.53405,855.78652 c 0,-1.88562 0,-3.77124 0,-5.65686"
       id="path4990"
       inkscape:connector-curvature="0" />
    <g
       id="g5169"
       style="opacity:0.59500002;fill:none"
       transform="matrix(1.4083474,0,0,1.4083474,-213.4674,-278.99236)">
      <path
         sodipodi:nodetypes="cc"
         inkscape:connector-curvature="0"
         id="path4154"
         d="m -6,366.3622 c 125.76779,-85.39692 218.6148,112.50354 353.49747,7.17157"
         style="fill:none;fill-rule:evenodd;stroke:#45eca8;stroke-width:4;stroke-linecap:round;stroke-linejoin:round;stroke-miterlimit:4;stroke-dasharray:none;stroke-opacity:1" />
      <path
         inkscape:connector-curvature="0"
         id="path4156"
         d="m -4,444.3622 c 86,0 84,0 84,0"
         style="fill:none;fill-rule:evenodd;stroke:#45eca8;stroke-width:4;stroke-linecap:round;stroke-linejoin:round;stroke-miterlimit:4;stroke-dasharray:none;stroke-opacity:1" />
      <path
         sodipodi:nodetypes="cc"
         inkscape:connector-curvature="0"
         id="path4907"
         d="M -18.183153,300.3341 C 95.542437,234.39036 149.37607,387.69304 271.17738,331.81349"
         style="fill:none;fill-rule:evenodd;stroke:#45eca8;stroke-width:3.87410426;stroke-linecap:round;stroke-linejoin:round;stroke-miterlimit:4;stroke-dasharray:none;stroke-opacity:1" />
      <path
         d="m 70,382.36221 a 14,14 0 0 1 -13.997618,14 14,14 0 0 1 -14.002381,-13.99523 14,14 0 0 1 13.992852,-14.00477 14,14 0 0 1 14.007144,13.99047"
         sodipodi:open="true"
         sodipodi:end="6.2825046"
         sodipodi:start="0"
         sodipodi:ry="14"
         sodipodi:rx="14"
         sodipodi:cy="382.36221"
         sodipodi:cx="56"
         sodipodi:type="arc"
         id="path4909"
         style="opacity:1;fill:none;fill-opacity:1;stroke:#45eca8;stroke-width:4;stroke-linecap:round;stroke-linejoin:round;stroke-miterlimit:4;stroke-dasharray:none;stroke-opacity:1" />
      <path
         style="fill:none;fill-rule:evenodd;stroke:#45eca8;stroke-width:4.57229853;stroke-linecap:round;stroke-linejoin:round;stroke-miterlimit:4;stroke-dasharray:none;stroke-opacity:1"
         d="m 130.72245,444.3622 c 112.36928,0 109.75606,0 109.75606,0"
         id="path4911"
         inkscape:connector-curvature="0" />
      <path
         sodipodi:nodetypes="csc"
         inkscape:connector-curvature="0"
         id="path4927"
         d="m -8,496.3622 c 5.7838349,4.25797 11.4002606,9.18821 18,12 91.06233,38.79675 105.36082,-32.56702 182,-15"
         style="fill:none;fill-rule:evenodd;stroke:#45eca8;stroke-width:4;stroke-linecap:round;stroke-linejoin:round;stroke-miterlimit:4;stroke-dasharray:none;stroke-opacity:1" />
      <path
         d="m 48,482.36221 a 7,7 0 0 1 -6.998809,7 A 7,7 0 0 1 34,482.3646 a 7,7 0 0 1 6.996426,-7.00239 7,7 0 0 1 7.003572,6.99524"
         sodipodi:open="true"
         sodipodi:end="6.2825046"
         sodipodi:start="0"
         sodipodi:ry="7"
         sodipodi:rx="7"
         sodipodi:cy="482.36221"
         sodipodi:cx="41"
         sodipodi:type="arc"
         id="path4929"
         style="opacity:1;fill:none;fill-opacity:1;stroke:#45eca8;stroke-width:4;stroke-linecap:round;stroke-linejoin:round;stroke-miterlimit:4;stroke-dasharray:none;stroke-opacity:1" />
      <path
         d="m 96.666705,475.36221 a 10.666667,10.666667 0 0 1 -10.664852,10.66667 10.666667,10.666667 0 0 1 -10.668481,-10.66304 10.666667,10.666667 0 0 1 10.66122,-10.67029 10.666667,10.666667 0 0 1 10.672111,10.6594"
         sodipodi:open="true"
         sodipodi:end="6.2825046"
         sodipodi:start="0"
         sodipodi:ry="10.666667"
         sodipodi:rx="10.666667"
         sodipodi:cy="475.36221"
         sodipodi:cx="86.000038"
         sodipodi:type="arc"
         id="path4931"
         style="opacity:1;fill:none;fill-opacity:1;stroke:#45eca8;stroke-width:4;stroke-linecap:round;stroke-linejoin:round;stroke-miterlimit:4;stroke-dasharray:none;stroke-opacity:1" />
      <path
         inkscape:connector-curvature="0"
         id="path4935"
         d="m -3,558.3622 44,0"
         style="fill:none;fill-rule:evenodd;stroke:#45eca8;stroke-width:4;stroke-linecap:round;stroke-linejoin:round;stroke-miterlimit:4;stroke-dasharray:none;stroke-opacity:1" />
      <path
         style="fill:none;fill-rule:evenodd;stroke:#45eca8;stroke-width:4;stroke-linecap:round;stroke-linejoin:round;stroke-miterlimit:4;stroke-dasharray:none;stroke-opacity:1"
         d="m 66.633331,558.3622 43.999999,0"
         id="path4937"
         inkscape:connector-curvature="0" />
      <path
         inkscape:connector-curvature="0"
         id="path4939"
         d="m 136.26666,558.3622 44,0"
         style="fill:none;fill-rule:evenodd;stroke:#45eca8;stroke-width:4;stroke-linecap:round;stroke-linejoin:round;stroke-miterlimit:4;stroke-dasharray:none;stroke-opacity:1" />
      <path
         style="fill:none;fill-rule:evenodd;stroke:#45eca8;stroke-width:4;stroke-linecap:round;stroke-linejoin:round;stroke-miterlimit:4;stroke-dasharray:none;stroke-opacity:1"
         d="m 205.89999,558.3622 44,0"
         id="path4941"
         inkscape:connector-curvature="0" />
      <path
         d="m 174,526.36218 a 15,15 0 0 1 -14.99745,15 A 15,15 0 0 1 144,526.36729 15,15 0 0 1 158.99234,511.36218 15,15 0 0 1 174,526.35197"
         sodipodi:open="true"
         sodipodi:end="6.2825046"
         sodipodi:start="0"
         sodipodi:ry="15"
         sodipodi:rx="15"
         sodipodi:cy="526.36218"
         sodipodi:cx="159"
         sodipodi:type="arc"
         id="path4943"
         style="opacity:1;fill:none;fill-opacity:1;stroke:#45eca8;stroke-width:4;stroke-linecap:round;stroke-linejoin:round;stroke-miterlimit:4;stroke-dasharray:none;stroke-dashoffset:4;stroke-opacity:1" />
      <path
         sodipodi:nodetypes="cc"
         inkscape:connector-curvature="0"
         id="path4947"
         d="m -23,615.3622 c 103.516925,-41.30185 161.87107,97.25786 291,5"
         style="fill:none;fill-rule:evenodd;stroke:#45eca8;stroke-width:4;stroke-linecap:round;stroke-linejoin:round;stroke-miterlimit:4;stroke-dasharray:none;stroke-opacity:1" />
      <path
         sodipodi:nodetypes="cc"
         inkscape:connector-curvature="0"
         id="path4949"
         d="m -2,583.3622 c 76.533243,-15.49777 137.43047,63.37969 204,19"
         style="fill:none;fill-rule:evenodd;stroke:#45eca8;stroke-width:4;stroke-linecap:round;stroke-linejoin:round;stroke-miterlimit:4;stroke-dasharray:none;stroke-opacity:1" />
      <path
         inkscape:connector-curvature="0"
         id="path4957"
         d="m 15,641.3622 55,0"
         style="fill:none;fill-rule:evenodd;stroke:#45eca8;stroke-width:4;stroke-linecap:round;stroke-linejoin:round;stroke-miterlimit:4;stroke-dasharray:none;stroke-opacity:1" />
      <path
         d="m 46.669046,677.59558 a 8.485281,8.485281 0 0 1 -8.483837,8.48528 8.485281,8.485281 0 0 1 -8.486724,-8.48239 8.485281,8.485281 0 0 1 8.480948,-8.48817 8.485281,8.485281 0 0 1 8.489611,8.47951"
         sodipodi:open="true"
         sodipodi:end="6.2825046"
         sodipodi:start="0"
         sodipodi:ry="8.485281"
         sodipodi:rx="8.485281"
         sodipodi:cy="677.59558"
         sodipodi:cx="38.183765"
         sodipodi:type="arc"
         id="path4963"
         style="opacity:1;fill:none;fill-opacity:1;stroke:#45eca8;stroke-width:4;stroke-linecap:round;stroke-linejoin:round;stroke-miterlimit:4;stroke-dasharray:none;stroke-dashoffset:4;stroke-opacity:1" />
      <path
         d="M 125.86501,688.9093 A 21.213203,21.213203 0 0 1 104.65541,710.1225 21.213203,21.213203 0 0 1 83.4386,688.91652 21.213203,21.213203 0 0 1 104.64097,667.6961 21.213203,21.213203 0 0 1 125.865,688.89486"
         sodipodi:open="true"
         sodipodi:end="6.2825046"
         sodipodi:start="0"
         sodipodi:ry="21.213203"
         sodipodi:rx="21.213203"
         sodipodi:cy="688.9093"
         sodipodi:cx="104.6518"
         sodipodi:type="arc"
         id="path4969"
         style="opacity:1;fill:none;fill-opacity:1;stroke:#45eca8;stroke-width:4;stroke-linecap:round;stroke-linejoin:round;stroke-miterlimit:4;stroke-dasharray:none;stroke-dashoffset:4;stroke-opacity:1" />
      <path
         d="m 179.60512,683.25244 a 12.727922,12.727922 0 0 1 -12.72576,12.72792 12.727922,12.727922 0 0 1 -12.73008,-12.72359 12.727922,12.727922 0 0 1 12.72142,-12.73225 12.727922,12.727922 0 0 1 12.73442,12.71926"
         sodipodi:open="true"
         sodipodi:end="6.2825046"
         sodipodi:start="0"
         sodipodi:ry="12.727922"
         sodipodi:rx="12.727922"
         sodipodi:cy="683.25244"
         sodipodi:cx="166.8772"
         sodipodi:type="arc"
         id="path4973"
         style="opacity:1;fill:none;fill-opacity:1;stroke:#45eca8;stroke-width:4;stroke-linecap:round;stroke-linejoin:round;stroke-miterlimit:4;stroke-dasharray:none;stroke-dashoffset:4;stroke-opacity:1" />
      <path
         inkscape:connector-curvature="0"
         id="path4982"
         d="m -14.142136,728.5073 c 87.17462,62.33413 177.775056,-54.48876 261.629506,1.41421"
         style="fill:none;fill-rule:evenodd;stroke:#45eca8;stroke-width:4;stroke-linecap:round;stroke-linejoin:round;stroke-miterlimit:4;stroke-dasharray:none;stroke-opacity:1" />
      <path
         sodipodi:nodetypes="cc"
         inkscape:connector-curvature="0"
         id="path4984"
         d="m -21.213203,752.54893 c 58.684678,58.73788 83.639111,-9.49846 138.592933,32.52691"
         style="fill:none;fill-rule:evenodd;stroke:#45eca8;stroke-width:4;stroke-linecap:round;stroke-linejoin:round;stroke-miterlimit:4;stroke-dasharray:none;stroke-opacity:1" />
      <path
         sodipodi:nodetypes="cc"
         inkscape:connector-curvature="0"
         id="path4988"
         d="M -15.556349,786.49005 C 113.37779,879.23116 220.70163,696.0647 360.62446,835.98753"
         style="fill:none;fill-rule:evenodd;stroke:#45eca8;stroke-width:4;stroke-linecap:round;stroke-linejoin:round;stroke-miterlimit:4;stroke-dasharray:none;stroke-opacity:1" />
      <path
         inkscape:connector-curvature="0"
         id="path4992"
         d="m 149.90664,758.20578 c 59.39697,0 60.81118,0 60.81118,0"
         style="fill:none;fill-rule:evenodd;stroke:#45eca8;stroke-width:4;stroke-linecap:round;stroke-linejoin:round;stroke-miterlimit:4;stroke-dasharray:none;stroke-opacity:1" />
      <path
         inkscape:connector-curvature="0"
         id="path4994"
         d="m 244.65895,758.20578 120.20815,0"
         style="fill:none;fill-rule:evenodd;stroke:#45eca8;stroke-width:4;stroke-linecap:round;stroke-linejoin:round;stroke-miterlimit:4;stroke-dasharray:none;stroke-opacity:1" />
      <path
         inkscape:connector-curvature="0"
         id="path4996"
         d="m 394.56558,758.20578 66.46804,0"
         style="fill:none;fill-rule:evenodd;stroke:#45eca8;stroke-width:4;stroke-linecap:round;stroke-linejoin:round;stroke-miterlimit:4;stroke-dasharray:none;stroke-opacity:1" />
      <path
         d="m 288.49958,831.74493 a 25.455845,25.455845 0 0 1 -25.45152,25.45585 25.455845,25.455845 0 0 1 -25.46017,-25.44718 25.455845,25.455845 0 0 1 25.44285,-25.46451 25.455845,25.455845 0 0 1 25.46883,25.43852"
         sodipodi:open="true"
         sodipodi:end="6.2825046"
         sodipodi:start="0"
         sodipodi:ry="25.455845"
         sodipodi:rx="25.455845"
         sodipodi:cy="831.74493"
         sodipodi:cx="263.04373"
         sodipodi:type="arc"
         id="path4998"
         style="opacity:1;fill:none;fill-opacity:1;stroke:#45eca8;stroke-width:4;stroke-linecap:round;stroke-linejoin:round;stroke-miterlimit:4;stroke-dasharray:none;stroke-dashoffset:4;stroke-opacity:1" />
      <path
         d="m 206.47517,817.60272 a 14.142136,14.142136 0 0 1 -14.13973,14.14214 14.142136,14.142136 0 0 1 -14.14454,-14.13732 14.142136,14.142136 0 0 1 14.13492,-14.14695 14.142136,14.142136 0 0 1 14.14935,14.13251"
         sodipodi:open="true"
         sodipodi:end="6.2825046"
         sodipodi:start="0"
         sodipodi:ry="14.142136"
         sodipodi:rx="14.142136"
         sodipodi:cy="817.60272"
         sodipodi:cx="192.33304"
         sodipodi:type="arc"
         id="path5000"
         style="opacity:1;fill:none;fill-opacity:1;stroke:#45eca8;stroke-width:4;stroke-linecap:round;stroke-linejoin:round;stroke-miterlimit:4;stroke-dasharray:none;stroke-dashoffset:4;stroke-opacity:1" />
      <path
         sodipodi:nodetypes="cc"
         inkscape:connector-curvature="0"
         id="path5002"
         d="m -18.36207,885.4881 c 137.46469,-96.40448 306.7883,91.82978 445.47897,-8.49341"
         style="fill:none;fill-rule:evenodd;stroke:#45eca8;stroke-width:3.95205498;stroke-linecap:round;stroke-linejoin:round;stroke-miterlimit:4;stroke-dasharray:none;stroke-opacity:1" />
      <path
         inkscape:connector-curvature="0"
         id="path5004"
         d="m 283.50048,558.3622 44,0"
         style="fill:none;fill-rule:evenodd;stroke:#45eca8;stroke-width:4;stroke-linecap:round;stroke-linejoin:round;stroke-miterlimit:4;stroke-dasharray:none;stroke-opacity:1" />
      <path
         inkscape:connector-curvature="0"
         id="path5006"
         d="m -11.313708,910.94085 65.053823,0"
         style="fill:none;fill-rule:evenodd;stroke:#45eca8;stroke-width:4;stroke-linecap:round;stroke-linejoin:round;stroke-miterlimit:4;stroke-dasharray:none;stroke-opacity:1" />
      <path
         d="m 121.62237,906.69818 a 14.142136,14.142136 0 0 1 -14.13973,14.14214 14.142136,14.142136 0 0 1 -14.144543,-14.13733 14.142136,14.142136 0 0 1 14.134913,-14.14694 14.142136,14.142136 0 0 1 14.14935,14.1325"
         sodipodi:open="true"
         sodipodi:end="6.2825046"
         sodipodi:start="0"
         sodipodi:ry="14.142136"
         sodipodi:rx="14.142136"
         sodipodi:cy="906.69818"
         sodipodi:cx="107.48023"
         sodipodi:type="arc"
         id="path5008"
         style="opacity:1;fill:none;fill-opacity:1;stroke:#45eca8;stroke-width:4;stroke-linecap:round;stroke-linejoin:round;stroke-miterlimit:4;stroke-dasharray:none;stroke-dashoffset:4;stroke-opacity:1" />
      <path
         sodipodi:nodetypes="cc"
         inkscape:connector-curvature="0"
         id="path5010"
         d="M -15.556349,953.36725 C 50.653643,921.77353 130.91475,1000.3399 199.40411,966.09518"
         style="fill:none;fill-rule:evenodd;stroke:#45eca8;stroke-width:4;stroke-linecap:butt;stroke-linejoin:miter;stroke-miterlimit:4;stroke-dasharray:none;stroke-opacity:1" />
      <path
         d="M 46.669046,978.82312 A 12.727922,12.727922 0 0 1 33.94329,991.55104 12.727922,12.727922 0 0 1 21.213202,978.82745 12.727922,12.727922 0 0 1 33.934626,966.0952 12.727922,12.727922 0 0 1 46.669043,978.81446"
         sodipodi:open="true"
         sodipodi:end="6.2825046"
         sodipodi:start="0"
         sodipodi:ry="12.727922"
         sodipodi:rx="12.727922"
         sodipodi:cy="978.82312"
         sodipodi:cx="33.941124"
         sodipodi:type="arc"
         id="path5012"
         style="opacity:1;fill:none;fill-opacity:1;stroke:#45eca8;stroke-width:4;stroke-linecap:round;stroke-linejoin:round;stroke-miterlimit:4;stroke-dasharray:none;stroke-dashoffset:4;stroke-opacity:1" />
      <path
         inkscape:connector-curvature="0"
         id="path5014"
         d="m 8.4852813,1031.149 80.6101727,0"
         style="fill:none;fill-rule:evenodd;stroke:#45eca8;stroke-width:4;stroke-linecap:round;stroke-linejoin:round;stroke-miterlimit:4;stroke-dasharray:none;stroke-opacity:1" />
      <path
         inkscape:connector-curvature="0"
         id="path5016"
         d="m 111.72287,1032.5632 90.50967,0"
         style="fill:none;fill-rule:evenodd;stroke:#45eca8;stroke-width:4;stroke-linecap:round;stroke-linejoin:round;stroke-miterlimit:4;stroke-dasharray:none;stroke-opacity:1" />
      <path
         inkscape:connector-curvature="0"
         id="path5018"
         d="m 229.1026,1031.149 104.6518,0"
         style="fill:none;fill-rule:evenodd;stroke:#45eca8;stroke-width:4;stroke-linecap:round;stroke-linejoin:round;stroke-miterlimit:4;stroke-dasharray:none;stroke-opacity:1" />
      <path
         d="m 277.18586,992.96527 a 19.79899,19.79899 0 0 1 -19.79562,19.79903 19.79899,19.79899 0 0 1 -19.80236,-19.79229 19.79899,19.79899 0 0 1 19.78888,-19.80573 19.79899,19.79899 0 0 1 19.8091,19.78551"
         sodipodi:open="true"
         sodipodi:end="6.2825046"
         sodipodi:start="0"
         sodipodi:ry="19.79899"
         sodipodi:rx="19.79899"
         sodipodi:cy="992.96527"
         sodipodi:cx="257.38687"
         sodipodi:type="arc"
         id="path5020"
         style="opacity:1;fill:none;fill-opacity:1;stroke:#45eca8;stroke-width:4;stroke-linecap:round;stroke-linejoin:round;stroke-miterlimit:4;stroke-dasharray:none;stroke-dashoffset:4;stroke-opacity:1" />
      <path
         style="opacity:1;fill:none;fill-opacity:1;stroke:#45eca8;stroke-width:4;stroke-linecap:round;stroke-linejoin:round;stroke-miterlimit:4;stroke-dasharray:none;stroke-dashoffset:4;stroke-opacity:1"
         id="path5022"
         sodipodi:type="arc"
         sodipodi:cx="124.45079"
         sodipodi:cy="1002.8647"
         sodipodi:rx="12.727922"
         sodipodi:ry="12.727922"
         sodipodi:start="0"
         sodipodi:end="6.2825046"
         sodipodi:open="true"
         d="m 137.17871,1002.8647 a 12.727922,12.727922 0 0 1 -12.72575,12.7279 12.727922,12.727922 0 0 1 -12.73009,-12.7236 12.727922,12.727922 0 0 1 12.72142,-12.73224 12.727922,12.727922 0 0 1 12.73442,12.71924" />
    </g>
    <g
       id="g5209"
       style="opacity:0.59500002;fill:none"
       transform="matrix(1.4083474,0,0,1.4083474,-213.4674,-278.99236)">
      <path
         sodipodi:nodetypes="cc"
         inkscape:connector-curvature="0"
         id="path4154-3"
         d="M 1051.5185,1000.0838 C 925.75072,1085.4807 832.90371,887.58027 698.02104,992.91224"
         style="fill:none;fill-rule:evenodd;stroke:#45eca8;stroke-width:4;stroke-linecap:round;stroke-linejoin:round;stroke-miterlimit:4;stroke-dasharray:none;stroke-opacity:1" />
      <path
         inkscape:connector-curvature="0"
         id="path4156-6"
         d="m 1049.5185,922.08381 c -85.99999,0 -83.99999,0 -83.99999,0"
         style="fill:none;fill-rule:evenodd;stroke:#45eca8;stroke-width:4;stroke-linecap:round;stroke-linejoin:round;stroke-miterlimit:4;stroke-dasharray:none;stroke-opacity:1" />
      <path
         sodipodi:nodetypes="cc"
         inkscape:connector-curvature="0"
         id="path4907-7"
         d="M 1065.1171,1066.1098 C 950.83705,1132.0436 896.74094,978.76413 774.3458,1034.6352"
         style="fill:none;fill-rule:evenodd;stroke:#45eca8;stroke-width:3.88324308;stroke-linecap:round;stroke-linejoin:round;stroke-miterlimit:4;stroke-dasharray:none;stroke-opacity:1" />
      <path
         transform="scale(-1,-1)"
         d="m -975.51849,-984.0838 a 14,14 0 0 1 -13.99762,14 14,14 0 0 1 -14.00239,-13.99524 14,14 0 0 1 13.99286,-14.00476 14,14 0 0 1 14.00714,13.99047"
         sodipodi:open="true"
         sodipodi:end="6.2825046"
         sodipodi:start="0"
         sodipodi:ry="14"
         sodipodi:rx="14"
         sodipodi:cy="-984.0838"
         sodipodi:cx="-989.51849"
         sodipodi:type="arc"
         id="path4909-5"
         style="opacity:1;fill:none;fill-opacity:1;stroke:#45eca8;stroke-width:4;stroke-linecap:round;stroke-linejoin:round;stroke-miterlimit:4;stroke-dasharray:none;stroke-opacity:1" />
      <path
         style="fill:none;fill-rule:evenodd;stroke:#45eca8;stroke-width:4.57229853;stroke-linecap:round;stroke-linejoin:round;stroke-miterlimit:4;stroke-dasharray:none;stroke-opacity:1"
         d="m 914.79606,922.08381 c -112.36928,0 -109.75606,0 -109.75606,0"
         id="path4911-3"
         inkscape:connector-curvature="0" />
      <path
         sodipodi:nodetypes="csc"
         inkscape:connector-curvature="0"
         id="path4927-5"
         d="m 1053.5185,870.08381 c -5.7838,-4.25797 -11.4003,-9.18821 -18,-12 -91.06232,-38.79675 -105.36081,32.56702 -181.99999,15"
         style="fill:none;fill-rule:evenodd;stroke:#45eca8;stroke-width:4;stroke-linecap:round;stroke-linejoin:round;stroke-miterlimit:4;stroke-dasharray:none;stroke-opacity:1" />
      <path
         transform="scale(-1,-1)"
         d="m -997.51849,-884.0838 a 7,7 0 0 1 -6.99881,7 7,7 0 0 1 -7.0012,-6.99762 7,7 0 0 1 6.9964,-7.00238 7,7 0 0 1 7.0036,6.99523"
         sodipodi:open="true"
         sodipodi:end="6.2825046"
         sodipodi:start="0"
         sodipodi:ry="7"
         sodipodi:rx="7"
         sodipodi:cy="-884.0838"
         sodipodi:cx="-1004.5185"
         sodipodi:type="arc"
         id="path4929-6"
         style="opacity:1;fill:none;fill-opacity:1;stroke:#45eca8;stroke-width:4;stroke-linecap:round;stroke-linejoin:round;stroke-miterlimit:4;stroke-dasharray:none;stroke-opacity:1" />
      <path
         transform="scale(-1,-1)"
         d="m -948.85183,-891.0838 a 10.666667,10.666667 0 0 1 -10.66485,10.66667 10.666667,10.666667 0 0 1 -10.66848,-10.66304 10.666667,10.666667 0 0 1 10.66122,-10.6703 10.666667,10.666667 0 0 1 10.67211,10.65941"
         sodipodi:open="true"
         sodipodi:end="6.2825046"
         sodipodi:start="0"
         sodipodi:ry="10.666667"
         sodipodi:rx="10.666667"
         sodipodi:cy="-891.0838"
         sodipodi:cx="-959.51849"
         sodipodi:type="arc"
         id="path4931-2"
         style="opacity:1;fill:none;fill-opacity:1;stroke:#45eca8;stroke-width:4;stroke-linecap:round;stroke-linejoin:round;stroke-miterlimit:4;stroke-dasharray:none;stroke-opacity:1" />
      <path
         inkscape:connector-curvature="0"
         id="path4935-9"
         d="m 1048.5185,808.08381 -44,0"
         style="fill:none;fill-rule:evenodd;stroke:#45eca8;stroke-width:4;stroke-linecap:round;stroke-linejoin:round;stroke-miterlimit:4;stroke-dasharray:none;stroke-opacity:1" />
      <path
         style="fill:none;fill-rule:evenodd;stroke:#45eca8;stroke-width:4;stroke-linecap:round;stroke-linejoin:round;stroke-miterlimit:4;stroke-dasharray:none;stroke-opacity:1"
         d="m 978.88518,808.08381 -44,0"
         id="path4937-1"
         inkscape:connector-curvature="0" />
      <path
         inkscape:connector-curvature="0"
         id="path4939-2"
         d="m 909.25185,808.08381 -44,0"
         style="fill:none;fill-rule:evenodd;stroke:#45eca8;stroke-width:4;stroke-linecap:round;stroke-linejoin:round;stroke-miterlimit:4;stroke-dasharray:none;stroke-opacity:1" />
      <path
         style="fill:none;fill-rule:evenodd;stroke:#45eca8;stroke-width:4;stroke-linecap:round;stroke-linejoin:round;stroke-miterlimit:4;stroke-dasharray:none;stroke-opacity:1"
         d="m 839.61852,808.08381 -44,0"
         id="path4941-7"
         inkscape:connector-curvature="0" />
      <path
         transform="scale(-1,-1)"
         d="m -871.51849,-840.0838 a 15,15 0 0 1 -14.99745,15 15,15 0 0 1 -15.00255,-14.9949 15,15 0 0 1 14.99234,-15.0051 15,15 0 0 1 15.00765,14.98979"
         sodipodi:open="true"
         sodipodi:end="6.2825046"
         sodipodi:start="0"
         sodipodi:ry="15"
         sodipodi:rx="15"
         sodipodi:cy="-840.0838"
         sodipodi:cx="-886.51849"
         sodipodi:type="arc"
         id="path4943-0"
         style="opacity:1;fill:none;fill-opacity:1;stroke:#45eca8;stroke-width:4;stroke-linecap:round;stroke-linejoin:round;stroke-miterlimit:4;stroke-dasharray:none;stroke-dashoffset:4;stroke-opacity:1" />
      <path
         sodipodi:nodetypes="cc"
         inkscape:connector-curvature="0"
         id="path4947-9"
         d="m 1068.5185,751.08381 c -103.51692,41.30185 -161.87106,-97.25786 -290.99999,-5"
         style="fill:none;fill-rule:evenodd;stroke:#45eca8;stroke-width:4;stroke-linecap:round;stroke-linejoin:round;stroke-miterlimit:4;stroke-dasharray:none;stroke-opacity:1" />
      <path
         sodipodi:nodetypes="cc"
         inkscape:connector-curvature="0"
         id="path4949-3"
         d="m 1047.5185,783.08381 c -76.53323,15.49777 -137.43046,-63.37969 -203.99999,-19"
         style="fill:none;fill-rule:evenodd;stroke:#45eca8;stroke-width:4;stroke-linecap:round;stroke-linejoin:round;stroke-miterlimit:4;stroke-dasharray:none;stroke-opacity:1" />
      <path
         inkscape:connector-curvature="0"
         id="path4957-6"
         d="m 1030.5185,725.08381 -54.99999,0"
         style="fill:none;fill-rule:evenodd;stroke:#45eca8;stroke-width:4;stroke-linecap:round;stroke-linejoin:round;stroke-miterlimit:4;stroke-dasharray:none;stroke-opacity:1" />
      <path
         transform="scale(-1,-1)"
         d="m -998.84944,-688.85046 a 8.485281,8.485281 0 0 1 -8.48386,8.48528 8.485281,8.485281 0 0 1 -8.4867,-8.4824 8.485281,8.485281 0 0 1 8.481,-8.48816 8.485281,8.485281 0 0 1 8.48956,8.4795"
         sodipodi:open="true"
         sodipodi:end="6.2825046"
         sodipodi:start="0"
         sodipodi:ry="8.485281"
         sodipodi:rx="8.485281"
         sodipodi:cy="-688.85046"
         sodipodi:cx="-1007.3347"
         sodipodi:type="arc"
         id="path4963-0"
         style="opacity:1;fill:none;fill-opacity:1;stroke:#45eca8;stroke-width:4;stroke-linecap:round;stroke-linejoin:round;stroke-miterlimit:4;stroke-dasharray:none;stroke-dashoffset:4;stroke-opacity:1" />
      <path
         transform="scale(-1,-1)"
         d="m -919.6535,-677.53674 a 21.213203,21.213203 0 0 1 -21.20959,21.2132 21.213203,21.213203 0 0 1 -21.21681,-21.20598 21.213203,21.213203 0 0 1 21.20237,-21.22042 21.213203,21.213203 0 0 1 21.22403,21.19876"
         sodipodi:open="true"
         sodipodi:end="6.2825046"
         sodipodi:start="0"
         sodipodi:ry="21.213203"
         sodipodi:rx="21.213203"
         sodipodi:cy="-677.53674"
         sodipodi:cx="-940.8667"
         sodipodi:type="arc"
         id="path4969-6"
         style="opacity:1;fill:none;fill-opacity:1;stroke:#45eca8;stroke-width:4;stroke-linecap:round;stroke-linejoin:round;stroke-miterlimit:4;stroke-dasharray:none;stroke-dashoffset:4;stroke-opacity:1" />
      <path
         transform="scale(-1,-1)"
         d="m -865.91343,-683.1936 a 12.727922,12.727922 0 0 1 -12.72576,12.72792 12.727922,12.727922 0 0 1 -12.73009,-12.72359 12.727922,12.727922 0 0 1 12.72142,-12.73225 12.727922,12.727922 0 0 1 12.73442,12.71925"
         sodipodi:open="true"
         sodipodi:end="6.2825046"
         sodipodi:start="0"
         sodipodi:ry="12.727922"
         sodipodi:rx="12.727922"
         sodipodi:cy="-683.1936"
         sodipodi:cx="-878.64136"
         sodipodi:type="arc"
         id="path4973-2"
         style="opacity:1;fill:none;fill-opacity:1;stroke:#45eca8;stroke-width:4;stroke-linecap:round;stroke-linejoin:round;stroke-miterlimit:4;stroke-dasharray:none;stroke-dashoffset:4;stroke-opacity:1" />
      <path
         inkscape:connector-curvature="0"
         id="path4982-6"
         d="M 1059.6606,637.93871 C 972.48603,575.60458 881.88559,692.42747 798.03114,636.5245"
         style="fill:none;fill-rule:evenodd;stroke:#45eca8;stroke-width:4;stroke-linecap:round;stroke-linejoin:round;stroke-miterlimit:4;stroke-dasharray:none;stroke-opacity:1" />
      <path
         sodipodi:nodetypes="cc"
         inkscape:connector-curvature="0"
         id="path4984-1"
         d="M 1066.7317,613.89708 C 1008.047,555.1592 983.0926,623.39554 928.13878,581.37017"
         style="fill:none;fill-rule:evenodd;stroke:#45eca8;stroke-width:4;stroke-linecap:round;stroke-linejoin:round;stroke-miterlimit:4;stroke-dasharray:none;stroke-opacity:1" />
      <path
         sodipodi:nodetypes="cc"
         inkscape:connector-curvature="0"
         id="path4988-8"
         d="M 1061.0749,579.95596 C 932.14072,487.21485 824.81688,670.38131 684.89405,530.45848"
         style="fill:none;fill-rule:evenodd;stroke:#45eca8;stroke-width:4;stroke-linecap:round;stroke-linejoin:round;stroke-miterlimit:4;stroke-dasharray:none;stroke-opacity:1" />
      <path
         inkscape:connector-curvature="0"
         id="path4992-7"
         d="m 895.61187,608.24023 c -59.39697,0 -60.81118,0 -60.81118,0"
         style="fill:none;fill-rule:evenodd;stroke:#45eca8;stroke-width:4;stroke-linecap:round;stroke-linejoin:round;stroke-miterlimit:4;stroke-dasharray:none;stroke-opacity:1" />
      <path
         inkscape:connector-curvature="0"
         id="path4994-9"
         d="m 800.85956,608.24023 -120.20815,0"
         style="fill:none;fill-rule:evenodd;stroke:#45eca8;stroke-width:4;stroke-linecap:round;stroke-linejoin:round;stroke-miterlimit:4;stroke-dasharray:none;stroke-opacity:1" />
      <path
         inkscape:connector-curvature="0"
         id="path4996-2"
         d="m 650.95293,608.24023 -66.46804,0"
         style="fill:none;fill-rule:evenodd;stroke:#45eca8;stroke-width:4;stroke-linecap:round;stroke-linejoin:round;stroke-miterlimit:4;stroke-dasharray:none;stroke-opacity:1" />
      <path
         transform="scale(-1,-1)"
         d="m -757.01895,-534.70105 a 25.455845,25.455845 0 0 1 -25.45151,25.45584 25.455845,25.455845 0 0 1 -25.46018,-25.44718 25.455845,25.455845 0 0 1 25.44285,-25.4645 25.455845,25.455845 0 0 1 25.46884,25.43851"
         sodipodi:open="true"
         sodipodi:end="6.2825046"
         sodipodi:start="0"
         sodipodi:ry="25.455845"
         sodipodi:rx="25.455845"
         sodipodi:cy="-534.70105"
         sodipodi:cx="-782.47479"
         sodipodi:type="arc"
         id="path4998-0"
         style="opacity:1;fill:none;fill-opacity:1;stroke:#45eca8;stroke-width:4;stroke-linecap:round;stroke-linejoin:round;stroke-miterlimit:4;stroke-dasharray:none;stroke-dashoffset:4;stroke-opacity:1" />
      <path
         transform="scale(-1,-1)"
         d="m -839.04335,-548.84326 a 14.142136,14.142136 0 0 1 -14.13973,14.14213 14.142136,14.142136 0 0 1 -14.14454,-14.13732 14.142136,14.142136 0 0 1 14.13491,-14.14695 14.142136,14.142136 0 0 1 14.14936,14.13251"
         sodipodi:open="true"
         sodipodi:end="6.2825046"
         sodipodi:start="0"
         sodipodi:ry="14.142136"
         sodipodi:rx="14.142136"
         sodipodi:cy="-548.84326"
         sodipodi:cx="-853.18549"
         sodipodi:type="arc"
         id="path5000-2"
         style="opacity:1;fill:none;fill-opacity:1;stroke:#45eca8;stroke-width:4;stroke-linecap:round;stroke-linejoin:round;stroke-miterlimit:4;stroke-dasharray:none;stroke-dashoffset:4;stroke-opacity:1" />
      <path
         sodipodi:nodetypes="cc"
         inkscape:connector-curvature="0"
         id="path5002-3"
         d="M 1065.2976,480.9583 C 927.39661,577.35117 757.53556,389.13958 618.40468,489.45068"
         style="fill:none;fill-rule:evenodd;stroke:#45eca8;stroke-width:3.95808363;stroke-linecap:round;stroke-linejoin:round;stroke-miterlimit:4;stroke-dasharray:none;stroke-opacity:1" />
      <path
         inkscape:connector-curvature="0"
         id="path5004-7"
         d="m 762.01803,808.08381 -44,0"
         style="fill:none;fill-rule:evenodd;stroke:#45eca8;stroke-width:4;stroke-linecap:round;stroke-linejoin:round;stroke-miterlimit:4;stroke-dasharray:none;stroke-opacity:1" />
      <path
         inkscape:connector-curvature="0"
         id="path5006-5"
         d="m 1056.8322,455.50516 -65.0538,0"
         style="fill:none;fill-rule:evenodd;stroke:#45eca8;stroke-width:4;stroke-linecap:round;stroke-linejoin:round;stroke-miterlimit:4;stroke-dasharray:none;stroke-opacity:1" />
      <path
         transform="scale(-1,-1)"
         d="m -923.89613,-459.74783 a 14.142136,14.142136 0 0 1 -14.13973,14.14213 14.142136,14.142136 0 0 1 -14.14454,-14.13732 14.142136,14.142136 0 0 1 14.13491,-14.14695 14.142136,14.142136 0 0 1 14.14935,14.13251"
         sodipodi:open="true"
         sodipodi:end="6.2825046"
         sodipodi:start="0"
         sodipodi:ry="14.142136"
         sodipodi:rx="14.142136"
         sodipodi:cy="-459.74783"
         sodipodi:cx="-938.03827"
         sodipodi:type="arc"
         id="path5008-9"
         style="opacity:1;fill:none;fill-opacity:1;stroke:#45eca8;stroke-width:4;stroke-linecap:round;stroke-linejoin:round;stroke-miterlimit:4;stroke-dasharray:none;stroke-dashoffset:4;stroke-opacity:1" />
      <path
         sodipodi:nodetypes="cc"
         inkscape:connector-curvature="0"
         id="path5010-2"
         d="m 1061.0749,413.07881 c -66.21,31.59367 -146.47114,-46.9727 -214.9605,-12.728"
         style="fill:none;fill-rule:evenodd;stroke:#45eca8;stroke-width:4;stroke-linecap:butt;stroke-linejoin:miter;stroke-miterlimit:4;stroke-dasharray:none;stroke-opacity:1" />
      <path
         transform="scale(-1,-1)"
         d="m -998.84947,-387.62302 a 12.727922,12.727922 0 0 1 -12.72573,12.72793 12.727922,12.727922 0 0 1 -12.7301,-12.72359 12.727922,12.727922 0 0 1 12.7214,-12.73226 12.727922,12.727922 0 0 1 12.73443,12.71926"
         sodipodi:open="true"
         sodipodi:end="6.2825046"
         sodipodi:start="0"
         sodipodi:ry="12.727922"
         sodipodi:rx="12.727922"
         sodipodi:cy="-387.62302"
         sodipodi:cx="-1011.5774"
         sodipodi:type="arc"
         id="path5012-2"
         style="opacity:1;fill:none;fill-opacity:1;stroke:#45eca8;stroke-width:4;stroke-linecap:round;stroke-linejoin:round;stroke-miterlimit:4;stroke-dasharray:none;stroke-dashoffset:4;stroke-opacity:1" />
      <path
         inkscape:connector-curvature="0"
         id="path5014-8"
         d="m 1037.0332,335.29701 -80.61014,0"
         style="fill:none;fill-rule:evenodd;stroke:#45eca8;stroke-width:4;stroke-linecap:round;stroke-linejoin:round;stroke-miterlimit:4;stroke-dasharray:none;stroke-opacity:1" />
      <path
         inkscape:connector-curvature="0"
         id="path5016-9"
         d="m 933.79564,333.88281 -90.50967,0"
         style="fill:none;fill-rule:evenodd;stroke:#45eca8;stroke-width:4;stroke-linecap:round;stroke-linejoin:round;stroke-miterlimit:4;stroke-dasharray:none;stroke-opacity:1" />
      <path
         inkscape:connector-curvature="0"
         id="path5018-7"
         d="m 816.41591,335.29701 -104.6518,0"
         style="fill:none;fill-rule:evenodd;stroke:#45eca8;stroke-width:4;stroke-linecap:round;stroke-linejoin:round;stroke-miterlimit:4;stroke-dasharray:none;stroke-opacity:1" />
      <path
         transform="scale(-1,-1)"
         d="m -768.33266,-373.48068 a 19.79899,19.79899 0 0 1 -19.79562,19.79899 19.79899,19.79899 0 0 1 -19.80236,-19.79225 19.79899,19.79899 0 0 1 19.78888,-19.80573 19.79899,19.79899 0 0 1 19.80909,19.78551"
         sodipodi:open="true"
         sodipodi:end="6.2825046"
         sodipodi:start="0"
         sodipodi:ry="19.79899"
         sodipodi:rx="19.79899"
         sodipodi:cy="-373.48068"
         sodipodi:cx="-788.13165"
         sodipodi:type="arc"
         id="path5020-3"
         style="opacity:1;fill:none;fill-opacity:1;stroke:#45eca8;stroke-width:4;stroke-linecap:round;stroke-linejoin:round;stroke-miterlimit:4;stroke-dasharray:none;stroke-dashoffset:4;stroke-opacity:1" />
      <path
         transform="scale(-1,-1)"
         style="opacity:1;fill:none;fill-opacity:1;stroke:#45eca8;stroke-width:4;stroke-linecap:round;stroke-linejoin:round;stroke-miterlimit:4;stroke-dasharray:none;stroke-dashoffset:4;stroke-opacity:1"
         id="path5022-6"
         sodipodi:type="arc"
         sodipodi:cx="-921.06775"
         sodipodi:cy="-363.58127"
         sodipodi:rx="12.727922"
         sodipodi:ry="12.727922"
         sodipodi:start="0"
         sodipodi:end="6.2825046"
         sodipodi:open="true"
         d="m -908.33983,-363.58127 a 12.727922,12.727922 0 0 1 -12.72575,12.72792 12.727922,12.727922 0 0 1 -12.73009,-12.72359 12.727922,12.727922 0 0 1 12.72142,-12.73225 12.727922,12.727922 0 0 1 12.73442,12.71926" />
    </g>
    <path
       sodipodi:nodetypes="ccccccc"
       inkscape:connector-curvature="0"
       id="path5249"
       d="m 642.66422,719.75173 c 19.99552,-0.60601 29.68771,7.93407 41.94856,20.65158 33.28906,-28.89098 96.8597,-22.94367 117.45592,5.80831 -17.39664,33.89498 -92.13888,34.51339 -117.45592,11.61647 -5.26787,11.55817 -21.21639,23.29365 -38.07638,20.65159 -0.21113,-13.11411 7.52433,-27.15266 20.65158,-29.68656 -13.61936,-0.64206 -25.11972,-10.43543 -24.52376,-29.04139 z"
       style="opacity:0.59500002;fill:none;fill-rule:evenodd;stroke:#45eca8;stroke-width:5.63338995;stroke-linecap:round;stroke-linejoin:round;stroke-miterlimit:4;stroke-dasharray:none;stroke-opacity:1" />
    <path
       style="opacity:0.59500002;fill:none;fill-rule:evenodd;stroke:#45eca8;stroke-width:5.63338995;stroke-linecap:round;stroke-linejoin:round;stroke-miterlimit:4;stroke-dasharray:none;stroke-opacity:1"
       d="m 475.31028,1105.6389 c -19.99552,-0.606 -29.68771,7.9341 -41.94856,20.6516 -33.28907,-28.891 -96.8597,-22.9437 -117.45592,5.8083 17.39664,33.895 92.13888,34.5134 117.45592,11.6165 5.26787,11.5582 21.21639,23.2936 38.07638,20.6516 0.21112,-13.1141 -7.52434,-27.1527 -20.65159,-29.6866 13.61937,-0.642 25.11972,-10.4354 24.52377,-29.0414 z"
       id="path5251"
       inkscape:connector-curvature="0"
       sodipodi:nodetypes="ccccccc" />
    <path
       sodipodi:nodetypes="ccccccc"
       inkscape:connector-curvature="0"
       id="path5253"
       d="m 706.27926,173.31292 c -19.99552,-0.60601 -29.68771,7.93407 -41.94856,20.65159 -33.28907,-28.89098 -96.8597,-22.94367 -117.45592,5.80831 17.39664,33.89498 92.13888,34.51338 117.45592,11.61647 5.26787,11.55816 21.21639,23.29364 38.07638,20.65158 0.21112,-13.11411 -7.52434,-27.15265 -20.65159,-29.68655 13.61937,-0.64207 25.11972,-10.43544 24.52377,-29.0414 z"
       style="opacity:0.59500002;fill:none;fill-rule:evenodd;stroke:#45eca8;stroke-width:5.63338995;stroke-linecap:round;stroke-linejoin:round;stroke-miterlimit:4;stroke-dasharray:none;stroke-opacity:1" />
  </g>
</svg>
